<svg width="85" height="85" viewBox="0 0 85 85" fill="none" xmlns="http://www.w3.org/2000/svg">
<path d="M42.4643 84.9286C65.9167 84.9286 84.9286 65.9167 84.9286 42.4643C84.9286 19.0119 65.9167 0 42.4643 0C19.0119 0 0 19.0119 0 42.4643C0 65.9167 19.0119 84.9286 42.4643 84.9286Z" fill="#3D9970"/>
<path d="M69.0215 41.5389C71.6824 37.5038 72.4448 33.8846 71.2819 30.7811C68.9828 24.6495 59.6605 22.1212 56.1498 21.1696L55.8473 21.0876C51.8049 19.9907 44.2798 17.9508 38.2455 25.6785C36.7934 27.5337 35.4706 29.7282 34.3124 32.2006C32.9642 33.1169 31.5075 34.0019 29.9754 34.7762L31.5488 32.8517C32.2012 32.0526 32.6544 31.4989 32.7656 31.3649C32.8729 31.2356 32.8543 31.0217 32.733 30.9098C32.613 30.7991 32.4005 30.7965 32.2805 30.9104C32.2805 30.9104 29.337 33.69 26.7427 36.1837C25.9303 36.4736 25.176 36.6888 24.4436 36.8601C25.0553 32.5591 25.8004 27.2592 25.8004 27.2592C25.825 27.0853 25.7097 26.922 25.5371 26.8867C25.3672 26.8487 25.1946 26.956 25.1486 27.1246C25.006 27.645 21.6533 39.8916 21.3648 41.4836L21.3601 41.5163C20.745 42.2953 19.9033 43.5681 19.157 44.6997C18.5312 45.6473 17.9401 46.543 17.6955 46.8162L17.5623 46.9648C16.9658 47.6312 15.5837 49.1706 14.7114 49.5964C14.0483 49.5078 13.3532 49.6857 12.8128 50.1609C12.3323 50.5834 12.0458 51.1672 12.0051 51.8056C11.9638 52.444 12.1744 53.0604 12.5969 53.5402C13.0194 54.0207 13.6038 54.3073 14.2422 54.3486C14.2942 54.3519 14.3462 54.3539 14.3982 54.3539C14.7001 54.3539 14.9933 54.2953 15.2685 54.1873C15.5451 54.5552 15.9636 54.7937 16.4727 54.8437C16.484 54.8444 16.4947 54.8451 16.506 54.8451C16.6753 54.8451 16.8206 54.7164 16.8372 54.5445C16.8545 54.3612 16.7206 54.198 16.538 54.18C16.2481 54.152 16.0115 54.0367 15.8463 53.8528C15.8896 53.8195 15.9362 53.7928 15.9776 53.7562C16.458 53.3336 16.7446 52.7492 16.7852 52.1108C16.8206 51.5643 16.6613 51.0399 16.3527 50.5981C16.638 49.5611 17.6995 48.3509 18.3473 47.6159L18.4193 47.5333C18.7805 47.1234 20.0086 45.9879 21.1049 44.9796C21.0935 45.2548 21.0836 45.528 21.0729 45.7939C21.0309 46.9155 20.9903 47.9737 20.9229 48.3309L20.8803 48.5595C20.7037 49.4971 20.3405 51.4157 19.828 52.2354C19.5168 52.3674 19.2269 52.5613 18.9864 52.8278C18.1021 53.8081 18.18 55.3255 19.161 56.2099C19.4449 56.4664 19.7761 56.6324 20.1219 56.7283C20.0879 57.5567 20.4165 58.3583 21.0356 58.9181C21.2848 59.1447 21.5687 59.3206 21.8792 59.4433C21.9192 59.4586 21.9605 59.4659 22.0012 59.4659C22.1338 59.4659 22.2598 59.3859 22.3117 59.2547C22.379 59.0834 22.2944 58.8901 22.1231 58.8228C21.8912 58.7322 21.6707 58.5943 21.4834 58.4243C21.0289 58.0138 20.7943 57.43 20.8003 56.8216C21.4434 56.8116 22.0798 56.5491 22.5436 56.0353C23.428 55.055 23.35 53.5376 22.369 52.6532C22.1778 52.4807 21.9625 52.3554 21.7393 52.2561C21.4467 51.2365 21.722 49.6684 21.8919 48.7141L21.9172 48.5688C22.0179 47.9957 22.5496 46.1565 22.9775 44.679C23.232 43.7987 23.4593 43.0104 23.5752 42.5659C23.9997 42.0607 24.7081 41.2031 25.5585 40.1741L26.5221 39.0073C28.5266 38.736 30.4086 38.3062 32.1606 37.7751C29.2164 46.6729 29.3996 55.2955 32.6697 59.8558C34.4477 62.3361 37.0107 63.5923 40.288 63.5923C40.4926 63.5896 40.6839 63.463 40.6832 63.2571C40.6826 63.0745 40.5333 62.9259 40.348 62.9259C37.2486 62.9312 34.8675 61.777 33.2115 59.4672C30.0074 54.9983 29.9028 46.3924 32.9402 37.5305C41.2123 34.8196 46.3583 29.8948 47.0974 28.8679C47.2047 28.7179 47.1707 28.51 47.0214 28.4027C46.8708 28.2948 46.6635 28.3288 46.5563 28.4787C45.6646 29.7182 38.1415 36.8094 26.3028 38.3662C25.6644 38.4521 25.0167 38.5188 24.3956 38.5628C24.3956 38.5628 24.2423 38.5701 24.233 38.5794C24.2223 38.5801 24.2117 38.5808 24.201 38.5814C24.2476 38.2569 24.2956 37.919 24.3449 37.5718C25.1999 37.3839 26.0796 37.1333 27.0466 36.7855C27.663 36.5629 28.2901 36.3076 28.9158 36.0251C35.1654 33.2275 40.4393 28.3228 42.4172 26.3435C42.5472 26.2136 42.5472 26.0023 42.4172 25.8724C42.2873 25.7424 42.076 25.7424 41.9461 25.8724C40.7812 27.0386 38.4521 29.2324 35.4599 31.3976C36.4629 29.4157 37.5704 27.6264 38.7733 26.0896C44.535 18.7099 51.7822 20.6751 55.6754 21.7313L55.9786 21.8133C59.3979 22.741 68.481 25.204 70.6602 31.0164C71.7211 33.8453 71.0333 37.1766 68.629 40.9218C68.2738 40.3427 67.8912 39.649 67.4827 38.786C67.4081 38.6287 67.4754 38.2209 67.5407 37.8277C67.6587 37.116 67.8046 36.231 67.4961 35.3474C67.4228 35.1368 67.2208 34.4797 66.9643 33.642C66.4378 31.9274 65.7168 29.5783 65.3316 28.556C65.3262 28.5413 65.3149 28.5314 65.3076 28.518C65.4169 27.7437 65.3529 27.0446 65.109 26.4308C64.6672 25.3206 63.6522 24.4816 62.0942 23.9385C61.9196 23.8758 61.7296 23.9691 61.6697 24.1431C61.6084 24.317 61.7003 24.5069 61.8743 24.5676C63.2431 25.0454 64.1227 25.7551 64.4899 26.6774C64.9197 27.757 64.6798 29.1898 63.7768 30.9351C63.0858 32.2719 58.8281 37.5851 53.4656 43.2016C50.1542 46.6703 48.7927 50.5447 49.8243 53.5656C50.53 55.6307 52.2754 57.0182 54.6131 57.3727C54.6298 57.3754 54.6471 57.3767 54.6637 57.3767C54.825 57.3767 54.9676 57.2581 54.9923 57.0935C55.0203 56.9116 54.895 56.7416 54.7131 56.7143C52.6292 56.3978 51.0772 55.1723 50.4547 53.3503C49.5051 50.5694 50.8106 46.9481 53.9467 43.6628C59.3499 38.003 63.6582 32.6138 64.3686 31.241C64.6478 30.7012 64.8624 30.188 65.0237 29.6969C65.4195 30.8838 65.9473 32.6011 66.3272 33.8386C66.5877 34.6876 66.7923 35.354 66.8676 35.5679C67.1202 36.2903 66.9943 37.0494 66.8836 37.7198C66.7903 38.2822 66.717 38.7274 66.8803 39.0719C68.0812 41.6082 69.1241 42.8398 69.7478 43.5768C70.193 44.1019 70.3896 44.3458 70.3896 44.6224C70.3896 45.0162 69.6632 45.4787 69.1834 45.7853C68.6576 46.1205 68.3097 46.3417 68.3824 46.7009C68.4044 46.8115 68.4137 46.9921 68.427 47.2147C68.4557 47.6805 68.495 48.3189 68.6483 48.9474C68.6636 49.0133 68.6509 49.0487 68.6236 49.0853C68.4504 49.3179 67.7566 49.5031 66.8976 49.5471C66.731 49.5558 66.5891 49.6751 66.5538 49.8383L66.5184 50.1302L66.7477 50.2469C67.6273 50.694 68.0525 51.0872 68.0745 51.2051C68.0378 51.3571 67.8912 51.5537 67.7353 51.7629C67.4168 52.1901 67.0209 52.7212 67.1289 53.4223C67.1422 53.5069 67.1582 53.5982 67.1755 53.6935C67.3501 54.6511 67.548 55.736 65.6481 56.1705C64.6125 56.4084 62.7206 56.2598 60.782 55.9233C60.7447 55.91 60.7061 55.9033 60.6661 55.904C58.1024 55.4495 55.4861 54.6705 54.6857 54.016C53.247 52.8372 52.1001 49.809 52.0888 49.779C52.0241 49.6064 51.8335 49.5171 51.6596 49.5844C51.4877 49.6491 51.3997 49.841 51.4643 50.0129C51.5136 50.1442 52.6852 53.2404 54.2639 54.5318C55.0889 55.2076 57.322 55.9073 59.6618 56.3778C58.4229 57.1208 56.3538 58.8368 56.501 61.9703C56.509 62.1489 56.6563 62.2881 56.8489 62.2875C57.0328 62.2788 57.1748 62.1229 57.1661 61.9396C56.9928 58.2544 60.1896 56.791 60.7207 56.5737C62.0655 56.8003 63.3823 56.9402 64.4239 56.9402C64.9677 56.9402 65.4375 56.9023 65.7967 56.8203C68.3177 56.2445 68.0019 54.5072 67.8319 53.5749C67.8159 53.4849 67.7999 53.3996 67.7879 53.321C67.7226 52.8952 68.0005 52.5226 68.2704 52.1614C68.4683 51.8962 68.6549 51.6456 68.7236 51.3604C68.7609 51.2038 68.8609 50.7833 67.8446 50.1089C68.3704 50.0103 68.9048 49.825 69.1594 49.4838C69.3107 49.2806 69.358 49.0407 69.296 48.7894C69.1567 48.2203 69.1194 47.6159 69.0928 47.1754C69.0808 46.9781 69.0694 46.8102 69.0535 46.6836C69.1501 46.5983 69.3727 46.4563 69.5413 46.3484C70.2157 45.9179 71.0547 45.3828 71.0553 44.6237C71.0553 44.0913 70.7368 43.7161 70.2563 43.147C69.9238 42.7551 69.5059 42.2593 69.0215 41.5389ZM23.7179 37.2246C23.7145 37.2373 23.7139 37.2499 23.7125 37.2633C23.6032 38.0296 23.4993 38.756 23.4066 39.4024C23.0788 39.721 22.6403 40.1501 22.2671 40.5253C22.7049 38.746 23.6119 35.3447 24.3976 32.4325C24.177 33.9899 23.9364 35.6866 23.7179 37.2246ZM22.567 42.1187C22.533 42.1574 22.491 42.1647 22.469 42.1654C22.4517 42.1654 22.4037 42.1634 22.3657 42.128C22.3271 42.094 22.3197 42.0521 22.3191 42.0301C22.3177 42.0081 22.3211 41.9648 22.3557 41.9268C22.3944 41.8841 22.4437 41.8801 22.4617 41.8795C22.485 41.8795 22.5237 41.8855 22.5583 41.9168C22.6156 41.9688 22.6203 42.0601 22.567 42.1187ZM16.1921 49.3325C16.0535 49.5685 15.9296 49.807 15.8336 50.0449C15.739 49.9736 15.6364 49.9183 15.5344 49.8623C15.749 49.7071 15.9696 49.5318 16.1921 49.3325ZM15.5357 53.2557C15.1885 53.5609 14.732 53.7155 14.2835 53.6828C13.8231 53.6535 13.4012 53.4469 13.096 53.0997C12.7915 52.7525 12.6389 52.308 12.6688 51.8476C12.6982 51.3871 12.9048 50.9659 13.2513 50.6607C13.5792 50.3721 13.987 50.2309 14.3922 50.2309C14.8726 50.2309 15.3505 50.4288 15.691 50.816C15.9955 51.1632 16.1482 51.6077 16.1182 52.0681C16.0888 52.5293 15.8823 52.9505 15.5357 53.2557ZM19.2103 45.8246C19.3689 45.586 19.5368 45.3321 19.7121 45.0669C20.3738 44.0646 21.1115 42.947 21.6833 42.186C21.7186 42.3526 21.7906 42.5072 21.9186 42.6238C22.0652 42.7551 22.2498 42.8258 22.445 42.8291C22.2351 43.0303 20.9836 44.1839 20.9836 44.1839C20.3878 44.7323 19.7554 45.3135 19.2103 45.8246ZM22.4897 54.3426C22.513 54.8031 22.3564 55.2456 22.0472 55.5888C21.738 55.932 21.3135 56.1332 20.8523 56.1579C20.7444 56.1625 20.6377 56.1559 20.5338 56.1419C20.5311 56.1412 20.5298 56.1399 20.5271 56.1392C20.5204 56.1379 20.5138 56.1405 20.5071 56.1399C20.1719 56.0906 19.8627 55.946 19.6061 55.7147C19.2629 55.4055 19.0617 54.981 19.037 54.5198C19.0137 54.0594 19.1703 53.6169 19.4795 53.2737C19.7887 52.9305 20.2132 52.7292 20.6744 52.7046C20.705 52.7032 20.7357 52.7026 20.7657 52.7026C21.1942 52.7026 21.6007 52.8578 21.9206 53.1471C22.2638 53.4569 22.4657 53.8814 22.4897 54.3426ZM20.6651 52.0422C20.7657 51.8022 20.8596 51.5437 20.9443 51.2651C20.9483 51.5377 20.9663 51.8042 21.0082 52.0568C20.8943 52.0455 20.7797 52.0375 20.6651 52.0422ZM21.704 46.7036C21.7153 46.425 21.7266 46.1278 21.7386 45.8193C21.7566 45.3394 21.7759 44.8356 21.7986 44.3412C22.1185 44.0479 22.381 43.8047 22.591 43.6081C22.511 43.8873 22.4264 44.1806 22.3357 44.4931C22.1211 45.2335 21.8952 46.0152 21.704 46.7036ZM25.0427 39.7496C24.305 40.6433 23.6839 41.3957 23.252 41.9121C23.2267 41.7302 23.1501 41.5543 23.0035 41.4216C22.8622 41.2944 22.6869 41.2384 22.5103 41.2271C22.8422 40.8879 23.3367 40.398 23.9518 39.8009C23.9644 39.7883 23.9758 39.7756 23.9864 39.761C24.1617 39.5904 24.3476 39.4084 24.5382 39.2198L24.5489 39.2185C24.8881 39.1932 25.2286 39.1485 25.5691 39.1119L25.0427 39.7496ZM28.3954 35.5219C28.5646 35.36 28.7326 35.2001 28.8992 35.0401L28.5646 35.4486C28.5086 35.4746 28.452 35.4973 28.3954 35.5219ZM66.1739 37.3033C66.048 37.1693 65.8367 37.1633 65.7028 37.2893C65.5828 37.4019 65.3896 37.5298 65.1476 37.6664C65.1503 37.6505 65.157 37.6358 65.157 37.6191C65.157 37.5145 65.1017 37.1813 64.8551 37.0247C64.7145 36.9354 64.5452 36.9274 64.3886 37.0014C63.6716 37.3426 61.8616 38.1856 60.5568 38.6641C60.3835 38.728 60.2949 38.9193 60.3582 39.0919C60.4075 39.2272 60.5354 39.3105 60.6714 39.3105C60.71 39.3105 60.748 39.3038 60.786 39.2905C62.0202 38.838 63.6836 38.0716 64.4979 37.6878C64.5186 37.7877 64.5872 37.8684 64.6758 37.913C63.6029 38.4415 62.0469 39.0326 61.1592 39.3691L60.798 39.5064C60.6427 39.5657 60.5468 39.717 60.5594 39.8829L60.6114 40.1681L60.8513 40.2228C62.2388 40.5407 63.6802 40.6699 64.5119 40.7212C64.5186 40.7219 64.5252 40.7279 64.5319 40.7279C64.5379 40.7279 64.5432 40.7239 64.5485 40.7239C64.9384 40.7479 65.187 40.7539 65.2169 40.7546C65.2196 40.7546 65.2223 40.7546 65.2249 40.7546C65.4055 40.7546 65.5535 40.61 65.5582 40.4294C65.5621 40.2454 65.4162 40.0928 65.2329 40.0882C65.2296 40.0882 65.1676 40.0862 65.081 40.0828C65.3929 39.3624 65.3642 38.6527 65.3242 38.3249C65.6841 38.1303 65.98 37.9443 66.1599 37.7751C66.2939 37.6485 66.3005 37.4372 66.1739 37.3033ZM64.5106 39.7136C64.1354 39.7023 63.8382 39.4091 63.8062 39.0366C63.9395 38.9799 64.0667 38.9246 64.1934 38.8686C64.1834 38.9366 64.1854 39.0086 64.2014 39.0812C64.248 39.2945 64.4033 39.4511 64.5845 39.4991C64.5659 39.5697 64.5379 39.641 64.5106 39.7136ZM63.1691 39.3005C63.2304 39.5577 63.3583 39.7896 63.5389 39.9709C63.0658 39.9236 62.5353 39.8589 61.9849 39.7663C62.3841 39.613 62.7819 39.4571 63.1691 39.3005ZM66.4065 35.3707C66.4845 35.2041 66.4125 35.0055 66.2452 34.9282C64.8251 34.2651 62.54 35.6559 59.897 37.2673L59.7877 37.3346C59.6305 37.4305 59.5805 37.6351 59.6765 37.7924C59.7391 37.8957 59.8491 37.9523 59.961 37.9523C60.0203 37.9523 60.0803 37.937 60.1343 37.9037L60.2442 37.8364C62.62 36.3883 64.8624 35.0208 65.9647 35.5326C66.1299 35.6106 66.3279 35.5386 66.4065 35.3707ZM67.9792 46.3524C68.0312 46.3524 68.0838 46.3397 68.1325 46.3144L68.9655 45.8812C69.1288 45.7966 69.1927 45.5953 69.1074 45.4321C69.0221 45.2675 68.8195 45.2068 68.6583 45.2901L67.8253 45.7233C67.662 45.8079 67.598 46.0092 67.6833 46.1725C67.7433 46.2871 67.8599 46.3524 67.9792 46.3524ZM47.5172 63.3371C41.5715 64.1707 39.5863 59.186 39.5043 58.9734C39.4384 58.8022 39.2458 58.7162 39.0745 58.7815C38.9026 58.8475 38.8159 59.0394 38.8813 59.2113C38.9012 59.264 40.8058 64.0954 46.235 64.0954C46.6695 64.0954 47.1287 64.0641 47.6098 63.9975C47.7918 63.9722 47.9191 63.8036 47.8937 63.6216C47.8677 63.4384 47.6938 63.3117 47.5172 63.3371ZM40.2427 56.0792C40.2347 55.9006 40.0875 55.7607 39.9102 55.7607C39.9055 55.7607 39.9002 55.7607 39.8955 55.7614C39.7123 55.7694 39.5697 55.9246 39.577 56.1086C39.5836 56.2572 39.7689 59.7558 42.6844 61.2912C42.7344 61.3172 42.7871 61.3299 42.8397 61.3299C42.9597 61.3299 43.0749 61.2652 43.1343 61.1519C43.2202 60.9887 43.1576 60.7874 42.995 60.7014C40.4233 59.3466 40.2447 56.1119 40.2427 56.0792ZM42.6198 29.1564C40.0261 31.4529 37.5358 33.2408 35.216 34.4704C35.0534 34.5563 34.9914 34.7582 35.0781 34.9209C35.1381 35.0335 35.2533 35.0981 35.372 35.0981C35.4246 35.0981 35.4779 35.0855 35.5279 35.0588C37.8943 33.8053 40.4287 31.9873 43.061 29.6556C43.1989 29.5336 43.2122 29.323 43.0896 29.1858C42.9663 29.0458 42.7557 29.0338 42.6198 29.1564ZM33.8299 35.1488C33.0295 35.5073 32.2538 35.7978 31.4575 36.0351C31.2809 36.0884 31.1809 36.2737 31.2336 36.4503C31.2769 36.5949 31.4095 36.6875 31.5528 36.6875C31.5841 36.6875 31.6168 36.6828 31.6488 36.6735C32.4724 36.4269 33.2748 36.127 34.1018 35.7559C34.2697 35.6812 34.345 35.484 34.2697 35.316C34.1951 35.1481 33.9965 35.0715 33.8299 35.1488ZM42.194 43.0403C39.7463 46.7156 39.1245 51.3191 39.3577 54.4026C39.3717 54.5778 39.517 54.7104 39.6896 54.7104C39.6983 54.7104 39.7069 54.7104 39.7156 54.7098C39.8989 54.6958 40.0361 54.5352 40.0228 54.3519C39.7969 51.3791 40.3953 46.9441 42.7484 43.4102C42.8504 43.2569 42.8091 43.0503 42.6558 42.9484C42.5045 42.8471 42.2966 42.8871 42.194 43.0403Z" fill="white"/>
</svg>
