<svg width="50" height="50" viewBox="0 0 50 50" fill="none" xmlns="http://www.w3.org/2000/svg">
<g clip-path="url(#clip0_33_154)">
<path d="M42.1875 0H7.8125C3.49778 0 0 3.49778 0 7.8125V42.1875C0 46.5022 3.49778 50 7.8125 50H42.1875C46.5022 50 50 46.5022 50 42.1875V7.8125C50 3.49778 46.5022 0 42.1875 0Z" fill="#A78BD6"/>
<path d="M12.6561 24.5442C19.367 21.6205 23.842 19.6928 26.0811 18.7616C32.4741 16.1025 33.8023 15.6406 34.6683 15.6251C34.8586 15.6219 35.2844 15.6692 35.5603 15.893C35.7931 16.0819 35.8572 16.3372 35.888 16.5164C35.9186 16.6955 35.9567 17.1037 35.9264 17.4226C35.58 21.0626 34.0809 29.8961 33.3183 33.973C32.9956 35.6981 32.3602 36.2766 31.745 36.3331C30.4083 36.4561 29.3931 35.4497 28.0983 34.6009C26.0722 33.2728 24.9277 32.4459 22.9609 31.15C20.6881 29.6522 22.1616 28.8291 23.4569 27.4837C23.7958 27.1317 29.6859 21.7742 29.7998 21.2881C29.8142 21.2273 29.8273 21.0008 29.6928 20.8811C29.5581 20.7616 29.3595 20.8025 29.2161 20.835C29.013 20.8811 25.7762 23.0205 19.5061 27.253C18.5873 27.8839 17.7552 28.1912 17.0097 28.1751C16.1877 28.1573 14.6066 27.7103 13.4312 27.3283C11.9896 26.8597 10.8438 26.6119 10.9436 25.8161C10.9955 25.4016 11.5664 24.9775 12.6561 24.5442Z" fill="#494949"/>
</g>
<defs>
<clipPath id="clip0_33_154">
<rect width="50" height="50" fill="white"/>
</clipPath>
</defs>
</svg>
