<svg width="18" height="18" viewBox="0 0 18 18" fill="none" xmlns="http://www.w3.org/2000/svg">
<g clip-path="url(#clip0_33_51)">
<path d="M6.75028 0.312001C6.8601 0.445445 6.92738 0.608755 6.94342 0.780832C6.95946 0.952909 6.92354 1.12584 6.84028 1.27729C6.18985 2.4715 5.85017 3.8101 5.8525 5.16995C5.8525 9.69376 9.54039 13.3569 14.0856 13.3569C14.6784 13.3569 15.2557 13.295 15.8103 13.1769C15.9803 13.1401 16.1574 13.1542 16.3195 13.2174C16.4816 13.2806 16.6214 13.3902 16.7215 13.5324C16.8273 13.6803 16.8812 13.859 16.8749 14.0407C16.8686 14.2224 16.8024 14.3968 16.6867 14.5371C15.8043 15.621 14.6912 16.4943 13.4283 17.0934C12.1656 17.6925 10.7851 18.0022 9.38739 18C4.20093 18 0 13.8215 0 8.67334C0 4.79869 2.37835 1.4753 5.76474 0.0667399C5.93343 -0.00455219 6.1207 -0.0191845 6.2984 0.0250408C6.47612 0.0692662 6.63469 0.169962 6.75028 0.312001Z" fill="black"/>
<path d="M12.1431 3.54089C12.1593 3.49217 12.1904 3.44977 12.232 3.41972C12.2736 3.38967 12.3236 3.37349 12.3749 3.37349C12.4263 3.37349 12.4763 3.38967 12.5179 3.41972C12.5595 3.44977 12.5906 3.49217 12.6066 3.54089L13.0421 4.8482C13.2368 5.43097 13.6935 5.88774 14.2763 6.08237L15.5836 6.51777C15.6323 6.5339 15.6746 6.56497 15.7048 6.60659C15.7348 6.64819 15.7509 6.6982 15.7509 6.74953C15.7509 6.80085 15.7348 6.85087 15.7048 6.89247C15.6746 6.93407 15.6323 6.96516 15.5836 6.98129L14.2763 7.41667C13.9888 7.51243 13.7277 7.67383 13.5135 7.88804C13.2992 8.10226 13.1379 8.36343 13.0421 8.65086L12.6066 9.95816C12.5906 10.0069 12.5595 10.0493 12.5179 10.0793C12.4763 10.1094 12.4263 10.1256 12.3749 10.1256C12.3236 10.1256 12.2736 10.1094 12.232 10.0793C12.1904 10.0493 12.1593 10.0069 12.1431 9.95816L11.7078 8.65086C11.612 8.36343 11.4506 8.10226 11.2364 7.88804C11.0222 7.67383 10.761 7.51243 10.4736 7.41667L9.1663 6.98129C9.11758 6.96516 9.07518 6.93407 9.04513 6.89247C9.01508 6.85087 8.9989 6.80085 8.9989 6.74953C8.9989 6.6982 9.01508 6.64819 9.04513 6.60659C9.07518 6.56497 9.11758 6.5339 9.1663 6.51777L10.4736 6.08237C10.761 5.98661 11.0222 5.82523 11.2364 5.611C11.4506 5.39678 11.612 5.13561 11.7078 4.8482L12.1431 3.54089ZM15.596 0.110622C15.607 0.0785878 15.6278 0.0508099 15.6555 0.0311505C15.6831 0.0114911 15.7161 0.000926971 15.7501 0.000926971C15.784 0.000926971 15.8171 0.0114911 15.8446 0.0311505C15.8723 0.0508099 15.8931 0.0785878 15.9042 0.110622L16.1945 0.981408C16.3239 1.37068 16.6287 1.67556 17.018 1.80494L17.8887 2.0952C17.9208 2.10632 17.9486 2.12713 17.9683 2.15475C17.988 2.18236 17.9984 2.21543 17.9984 2.24934C17.9984 2.28324 17.988 2.31631 17.9683 2.34393C17.9486 2.37154 17.9208 2.39236 17.8887 2.40347L17.018 2.69373C16.8262 2.75754 16.6518 2.86521 16.5089 3.00816C16.3659 3.15111 16.2583 3.32543 16.1945 3.51727L15.9042 4.38805C15.8931 4.42008 15.8723 4.44787 15.8446 4.46752C15.8171 4.48719 15.784 4.49775 15.7501 4.49775C15.7161 4.49775 15.6831 4.48719 15.6555 4.46752C15.6278 4.44787 15.607 4.42008 15.596 4.38805L15.3056 3.51727C15.2418 3.32543 15.1342 3.15111 14.9913 3.00816C14.8483 2.86521 14.6739 2.75754 14.4821 2.69373L13.6114 2.40347C13.5793 2.39236 13.5515 2.37154 13.5318 2.34393C13.5123 2.31631 13.5017 2.28324 13.5017 2.24934C13.5017 2.21543 13.5123 2.18236 13.5318 2.15475C13.5515 2.12713 13.5793 2.10632 13.6114 2.0952L14.4821 1.80494C14.8714 1.67556 15.1763 1.37068 15.3056 0.981408L15.596 0.111747V0.110622Z" fill="black"/>
</g>
<defs>
<clipPath id="clip0_33_51">
<rect width="18" height="18" fill="white"/>
</clipPath>
</defs>
</svg>
